ModelForces
version=1
nRows=4
nColumns=157
inDegrees=no

This file contains the forces exerted on a model during a simulation.

A force is a generalized force, meaning that it can be either a force (N) or a torque (Nm).

Units are S.I. units (second, meters, Newtons, ...)
Angles are in degrees.

endheader
time	glut_med1_r	glut_med2_r	glut_med3_r	glut_min1_r	glut_min2_r	glut_min3_r	semimem_r	semiten_r	bifemlh_r	bifemsh_r	sar_r	add_long_r	add_brev_r	add_mag1_r	add_mag2_r	add_mag3_r	tfl_r	pect_r	grac_r	glut_max1_r	glut_max2_r	glut_max3_r	iliacus_r	psoas_r	quad_fem_r	gem_r	peri_r	rect_fem_r	vas_med_r	vas_int_r	vas_lat_r	med_gas_r	lat_gas_r	soleus_r	tib_post_r	flex_dig_r	flex_hal_r	tib_ant_r	per_brev_r	per_long_r	per_tert_r	ext_dig_r	ext_hal_r	glut_med1_l	glut_med2_l	glut_med3_l	glut_min1_l	glut_min2_l	glut_min3_l	semimem_l	semiten_l	bifemlh_l	bifemsh_l	sar_l	add_long_l	add_brev_l	add_mag1_l	add_mag2_l	add_mag3_l	tfl_l	pect_l	grac_l	glut_max1_l	glut_max2_l	glut_max3_l	iliacus_l	psoas_l	quad_fem_l	gem_l	peri_l	rect_fem_l	vas_med_l	vas_int_l	vas_lat_l	med_gas_l	lat_gas_l	soleus_l	tib_post_l	flex_dig_l	flex_hal_l	tib_ant_l	per_brev_l	per_long_l	per_tert_l	ext_dig_l	ext_hal_l	ercspn_r	ercspn_l	intobl_r	intobl_l	extobl_r	extobl_l	femur_lat_meniscii_r.femur_lat_r.force.X	femur_lat_meniscii_r.femur_lat_r.force.Y	femur_lat_meniscii_r.femur_lat_r.force.Z	femur_lat_meniscii_r.femur_lat_r.torque.X	femur_lat_meniscii_r.femur_lat_r.torque.Y	femur_lat_meniscii_r.femur_lat_r.torque.Z	femur_lat_meniscii_r.meniscus_lat_r.force.X	femur_lat_meniscii_r.meniscus_lat_r.force.Y	femur_lat_meniscii_r.meniscus_lat_r.force.Z	femur_lat_meniscii_r.meniscus_lat_r.torque.X	femur_lat_meniscii_r.meniscus_lat_r.torque.Y	femur_lat_meniscii_r.meniscus_lat_r.torque.Z	femur_med_meniscii_r.femur_med_r.force.X	femur_med_meniscii_r.femur_med_r.force.Y	femur_med_meniscii_r.femur_med_r.force.Z	femur_med_meniscii_r.femur_med_r.torque.X	femur_med_meniscii_r.femur_med_r.torque.Y	femur_med_meniscii_r.femur_med_r.torque.Z	femur_med_meniscii_r.meniscus_med_r.force.X	femur_med_meniscii_r.meniscus_med_r.force.Y	femur_med_meniscii_r.meniscus_med_r.force.Z	femur_med_meniscii_r.meniscus_med_r.torque.X	femur_med_meniscii_r.meniscus_med_r.torque.Y	femur_med_meniscii_r.meniscus_med_r.torque.Z	femur_med_tibia_r.tibia_upper_r.force.X	femur_med_tibia_r.tibia_upper_r.force.Y	femur_med_tibia_r.tibia_upper_r.force.Z	femur_med_tibia_r.tibia_upper_r.torque.X	femur_med_tibia_r.tibia_upper_r.torque.Y	femur_med_tibia_r.tibia_upper_r.torque.Z	femur_med_tibia_r.femur_med_r.force.X	femur_med_tibia_r.femur_med_r.force.Y	femur_med_tibia_r.femur_med_r.force.Z	femur_med_tibia_r.femur_med_r.torque.X	femur_med_tibia_r.femur_med_r.torque.Y	femur_med_tibia_r.femur_med_r.torque.Z	femur_lat_tibia_r.tibia_upper_r.force.X	femur_lat_tibia_r.tibia_upper_r.force.Y	femur_lat_tibia_r.tibia_upper_r.force.Z	femur_lat_tibia_r.tibia_upper_r.torque.X	femur_lat_tibia_r.tibia_upper_r.torque.Y	femur_lat_tibia_r.tibia_upper_r.torque.Z	femur_lat_tibia_r.femur_lat_r.force.X	femur_lat_tibia_r.femur_lat_r.force.Y	femur_lat_tibia_r.femur_lat_r.force.Z	femur_lat_tibia_r.femur_lat_r.torque.X	femur_lat_tibia_r.femur_lat_r.torque.Y	femur_lat_tibia_r.femur_lat_r.torque.Z	aACL_R	pACL_R	aPCL_R	pPCL_R	aMCL_R	mMCL_R	pMCL_R	aLCL_R	mLCL_R	pLCL_R	ground_prescribedForce_fx	ground_prescribedForce_fy	ground_prescribedForce_fz	ground_prescribedForce_px	ground_prescribedForce_py	ground_prescribedForce_pz
      0.16736303	     11.28577448	     25.45253679	    141.20530051	      3.68736850	      4.11376648	      9.69737204	    232.10961369	    196.58210287	    531.67958153	    333.08284719	     81.59486278	      6.81234532	      6.10341535	     18.52267263	     14.99354482	     82.66070765	      0.00000000	      2.35254094	     95.64037360	      8.00409276	     12.01877285	     57.97768911	      7.47796623	      7.08957154	    189.56019592	     36.69310402	     73.14907206	     21.42232135	     45.96052610	     76.87781380	     54.03035640	      0.00000000	      0.00000000	      0.00000000	      0.00000000	      0.00000000	      0.00000000	     40.73117970	      0.00000000	      0.00000000	     22.61356304	     61.17854118	     16.52541198	     11.32877664	      8.24761272	      8.86945129	      3.80988341	      4.43144678	      4.78764135	     14.04782243	      6.10727185	     12.16357888	     10.42483182	      2.17394637	      8.20735111	      5.91386920	      4.23955679	      3.59575363	      6.05571197	      5.37875593	      3.21559163	      2.24376350	      5.32511520	      8.10064157	      6.08638251	     27.36655340	     18.32321406	      5.23770258	      3.62621921	      6.79716193	     16.79378228	      9.69308574	     11.19667461	     12.02533449	     24.20849836	     11.24938447	     51.70731686	     50.93320087	      5.47468820	      5.37629563	     13.11064962	      7.01136965	     18.27356622	      2.83315342	      8.55386935	      2.67548432	     35.86033404	     35.86033404	     13.31220301	     13.31220301	     30.69130154	     30.69130154	   -126.83930243	    401.40164856	    -23.09618613	     -9.62902173	      6.30918754	    162.26319670	    126.83930243	   -401.40164856	     23.09618613	     10.18980720	      3.26910136	      1.12357623	    -54.59742294	    100.22459036	     42.21266551	      2.36166077	    -15.76149238	     40.52878185	     54.59742294	   -100.22459036	    -42.21266551	     -0.70248197	     -0.82269040	      0.99263813	    -43.09245705	   -862.55885448	    266.07181467	    -20.29505119	     -0.91096314	     -6.44829019	     43.09245705	    862.55885448	   -266.07181467	     14.64699907	    106.41220719	    347.55034898	     -0.13368922	     -1.02927789	     -0.32033650	      0.03891131	     -0.00177458	     -0.01051535	      0.13368922	      1.02927789	      0.32033650	     -0.02545546	     -0.12584072	      0.41494225	      0.00000000	      0.00000000	   1462.82251248	    993.80864665	      2.94779776	      0.00000000	      0.00000000	      0.00000000	      0.00000000	      0.00000000	      0.00000000	      0.00000000	      0.00000000	      0.00000000	      0.00000000	      0.00000000
      0.16823769	     11.24238356	     25.42564916	    141.18301660	      3.67468712	      4.09924357	      9.68075537	    233.74426442	    197.60707303	    546.08114307	    339.73211224	     81.34067087	      6.78781006	      6.08259476	     18.50501361	     14.97717691	     82.64288923	      0.00000000	      2.34443145	     95.61004097	      7.97471199	     11.97456590	     57.95504252	      7.45118648	      7.06347262	    189.54896690	     36.68746946	     73.13359038	     21.35477390	     46.18604383	     75.63983823	     55.13549874	      0.00000000	      0.00000000	      0.00000000	      0.00000000	      0.00000000	      0.00000000	     48.52517426	      0.00000000	      0.00000000	     22.10099318	     61.17968961	     16.61940565	     11.28520815	      8.21801076	      8.83723526	      3.79677005	      4.41710286	      4.76926983	     13.98835812	      6.08395283	     12.11284592	     10.38812763	      2.16649870	      8.17755443	      5.89370330	      4.22440815	      3.58260692	      6.03187781	      5.36397181	      3.20444498	      2.23594159	      5.30592926	      8.07138919	      6.06406060	     27.31203355	     18.26104572	      5.21928229	      3.61722902	      6.76766156	     16.72420231	      9.65726599	     11.15463041	     11.98020903	     24.10180040	     11.19969725	     51.48220607	     50.83610325	      5.44955771	      5.35188369	     13.05736388	      6.98141174	     18.20985067	      2.82357496	      8.51669166	      2.66397805	     35.73662799	     35.73662799	     13.26257413	     13.26257413	     30.64633056	     30.64633056	   -125.88352160	    418.87256945	    -16.72467536	    -10.13401918	      3.77743978	    169.36211624	    125.88352160	   -418.87256945	     16.72467536	     10.96012650	      3.27561787	      1.06505313	    -58.66753763	     97.00586654	     45.95085716	      2.21946072	    -17.16770321	     39.17085303	     58.66753763	    -97.00586654	    -45.95085716	     -0.44455469	     -0.89929990	      1.23611157	    -51.34538194	   -821.08814988	    256.13653584	    -19.38542126	     -0.65685107	     -6.18087618	     51.34538194	    821.08814988	   -256.13653584	     13.90584360	    102.25840423	    330.78306550	     -0.28307326	     -1.98126651	     -0.61964084	      0.07503410	     -0.00438036	     -0.02023453	      0.28307326	      1.98126651	      0.61964084	     -0.04891786	     -0.24273240	      0.79843277	      0.00000000	      0.00000000	   1468.31337456	   1000.41394818	      3.68671703	      0.00000000	      0.00000000	      0.00000000	      0.00000000	      0.00000000	      0.00000000	      0.00000000	      0.00000000	      0.00000000	      0.00000000	      0.00000000
      0.16911235	     11.19950145	     25.39907544	    141.16098978	      3.66215228	      4.08488955	      9.66433689	    235.89171194	    199.07125855	    561.21909712	    347.50267286	     81.22103915	      6.76356198	      6.06201417	     18.48756092	     14.96100199	     82.62527896	      0.00000000	      2.33641587	     95.79045604	      7.94567526	     11.93087659	     57.93265977	      7.42472104	      7.03768237	    189.53871451	     36.68190030	     73.11829355	     21.30100721	     46.30958235	     77.76719756	     52.27429671	      0.00000000	      0.00000000	      0.00000000	      1.19315766	      0.00000000	      0.00000000	     54.11450787	      0.00000000	      0.00000000	     24.73265864	     61.17309540	     16.68182409	     11.24215052	      8.18875419	      8.80539613	      3.78380823	      4.40292612	      4.75111365	     13.92956369	      6.06090731	     12.06269218	     10.35185033	      2.15913698	      8.14810637	      5.87376982	      4.20943649	      3.56961458	      6.00832268	      5.34936126	      3.19342747	      2.22821038	      5.28696826	      8.04247973	      6.04200075	     27.25815874	     18.19961484	      5.20107608	      3.60834626	      6.73848586	     16.65542009	      9.62186945	     11.11308341	     11.93561911	     23.99623661	     11.15053945	     51.25957703	     50.74013350	      5.42470687	      5.32774885	     13.00469486	      6.95179232	     18.14685259	      2.81410987	      8.47989495	      2.65258887	     35.61435235	     35.61435235	     13.21352707	     13.21352707	     30.60189350	     30.60189350	   -134.52722428	    413.00355422	    -20.39842102	    -10.00171048	      5.09964145	    166.85706830	    134.52722428	   -413.00355422	     20.39842102	     10.70057625	      3.45050039	      1.64727302	    -54.05964853	     98.74121087	     40.04282290	      2.31786124	    -14.85824594	     39.89205728	     54.05964853	    -98.74121087	    -40.04282290	     -0.71786203	     -0.88640050	      1.09258691	    -59.13078783	   -802.41441202	    256.27820237	    -19.12276862	     -0.47092545	     -6.05977643	     59.13078783	    802.41441202	   -256.27820237	     13.56966827	    102.17564483	    323.21891308	     -0.45410643	     -2.83564135	     -0.87894480	      0.10725311	     -0.00794341	     -0.02976902	      0.45410643	      2.83564135	      0.87894480	     -0.06994927	     -0.34301484	      1.14275337	      0.00000000	      0.00000000	   1473.74040345	   1007.77633052	      1.80360211	      0.00000000	      0.00000000	      0.00000000	      0.00000000	      0.00000000	      0.00000000	      0.00000000	      0.00000000	      0.00000000	      0.00000000	      0.00000000
      0.16919296	     11.19557432	     25.39664176	    141.15897236	      3.66100423	      4.08357494	      9.66283346	    236.09950215	    199.21505300	    562.62269023	    348.18706358	     81.20650626	      6.76134133	      6.06012920	     18.48596257	     14.95952075	     82.62366617	      0.00000000	      2.33568175	     95.80771656	      7.94301606	     11.92687551	     57.93060988	      7.42229736	      7.03532065	    189.53765957	     36.68139024	     73.11689284	     21.29531344	     46.31912106	     77.70048129	     52.87655996	      0.00000000	      0.00000000	      0.00000000	      1.32787332	      0.00000000	      0.00000000	     54.38288088	      0.00000000	      0.00000000	     24.32155687	     61.17332699	     16.69120018	     11.23820732	      8.18607480	      8.80248028	      3.78262108	      4.40162777	      4.74945091	     13.92417796	      6.05879682	     12.05809834	     10.34852789	      2.15846273	      8.14540949	      5.87194412	      4.20806536	      3.56842476	      6.00616549	      5.34802324	      3.19241842	      2.22750231	      5.28523182	      8.03983221	      6.03998054	     27.25322520	     18.19398946	      5.19940866	      3.60753288	      6.73581290	     16.64912014	      9.61862801	     11.10927876	     11.93153591	     23.98656326	     11.14603493	     51.23918086	     50.73134409	      5.42243032	      5.32553816	     12.99987106	      6.94907914	     18.14108176	      2.81324312	      8.47652234	      2.65154495	     35.60315339	     35.60315339	     13.20903536	     13.20903536	     30.59782430	     30.59782430	   -137.03757802	    415.32098715	    -19.08405374	    -10.07475353	      4.51254228	    167.77282859	    137.03757802	   -415.32098715	     19.08405374	     10.82404512	      3.52407832	      1.74545829	    -54.08808750	     97.28068951	     40.28825531	      2.27112894	    -14.95700647	     39.29176769	     54.08808750	    -97.28068951	    -40.28825531	     -0.66738507	     -0.88605267	      1.11621581	    -60.20604754	   -800.81775609	    256.01314381	    -19.08763285	     -0.44665338	     -6.06028543	     60.20604754	    800.81775609	   -256.01314381	     13.53724716	    102.04908555	    322.57085109	     -0.46756104	     -2.91707623	     -0.90377846	      0.11034419	     -0.00822383	     -0.03052459	      0.46756104	      2.91707623	      0.90377846	     -0.07196465	     -0.35267762	      1.17553113	      0.00000000	      0.00000000	   1474.28171554	   1008.59834563	      1.62162941	      0.00000000	      0.00000000	      0.00000000	      0.00000000	      0.00000000	      0.00000000	      0.00000000	      0.00000000	      0.00000000	      0.00000000	      0.00000000
